<?xml version="1.0" encoding="utf-8"?>
<!DOCTYPE svg PUBLIC "-//W3C//DTD SVG 1.0//EN" "http://www.w3.org/TR/2001/REC-SVG-20010904/DTD/svg10.dtd">
<svg version="1.0" xmlns="http://www.w3.org/2000/svg" width="480px" height="480px" viewBox="0 0 480 480" preserveAspectRatio="xMidYMid meet">
 <g fill="#000000">
  <path d="M257.7 370.2 c-2.3 -2.5 -1.3 -4.8 4 -9 8.5 -6.6 23.3 -12 35.8 -12.9 11.5 -0.9 15 3 8.3 9.4 -8.1 7.6 -22.8 13.2 -36.8 14 -8.7 0.5 -9.7 0.4 -11.3 -1.5z"/>
  <path d="M188 363.5 c-19.2 -4.2 -40 -22 -40 -34.4 0 -9.9 10.2 -16.3 23.4 -14.7 14.9 1.8 21 3.9 39.2 13.2 20.8 10.6 32.6 14.9 45.4 16.5 10.5 1.2 19.3 0.2 29.2 -3.4 8.7 -3.2 15.6 -7.8 27.1 -18.3 22 -20 30.2 -25.4 39.3 -26.2 4.5 -0.4 5.3 -0.1 6.8 1.9 3.1 4.5 -0.2 13.6 -7.6 20.5 -12.7 12.1 -27.6 18.1 -66.8 26.9 -9.1 2 -25.2 6.6 -35.8 10.2 -10.6 3.5 -22.7 7.1 -26.8 7.9 -9.4 1.7 -24.8 1.7 -33.4 -0.1z"/>
  <path d="M252 334.3 c-11.3 -1.9 -21.3 -5.4 -38 -13.3 -30 -14.3 -37.7 -16.6 -51.6 -15.6 -4.6 0.3 -12.1 0.9 -16.7 1.2 -11.3 0.9 -16.4 -1.3 -25 -10.6 -8.4 -9.1 -12.9 -18 -13.1 -25.9 -0.1 -5 0.3 -6.3 2.3 -8.5 6.5 -6.9 18.9 0 33.1 18.3 8.6 11 16.6 17.3 26.9 21.2 9.8 3.8 32.9 2.4 53.6 -3.1 3.9 -1 14.7 -4.4 24 -7.4 22.6 -7.4 34.6 -9.9 45.5 -9.4 13.5 0.7 19.9 4.9 20.8 13.8 0.4 4 -0.1 6 -2.4 10.7 -3.7 7.7 -14.1 18.1 -22.3 22.2 -11.3 5.7 -26 8.3 -37.1 6.4z"/>
  <path d="M172.3 289.1 c-13.7 -4.7 -20.9 -15.7 -20.2 -30.8 0.8 -15.7 10 -25.9 26.4 -29.3 13.8 -2.9 28.4 1.3 47.2 13.4 19.2 12.3 36.9 17.9 56.8 18 8.4 0 12.9 -0.6 18.8 -2.2 9.7 -2.8 13.1 -4.5 26.4 -13.4 5.7 -3.8 13 -8.1 16.1 -9.6 20.8 -9.5 39.2 7.6 28.7 26.7 -3.3 5.9 -8.9 11 -15.6 14 -7.7 3.5 -20.6 2.3 -31.4 -2.9 -25.9 -12.5 -37.8 -12 -77 3 -20.8 8 -25.5 9.6 -37.8 12.5 -12.9 3.2 -30.3 3.4 -38.4 0.6z"/>
  <path d="M285.2 249.5 c-8 -1.8 -15.2 -5.1 -27.2 -12.5 -11.7 -7.2 -22.6 -12.3 -33.9 -15.7 -7.4 -2.2 -10.6 -2.6 -23.1 -2.7 -12.6 -0.1 -15.5 0.2 -22 2.2 -8.4 2.6 -19 8.1 -29.7 15.4 -17.2 11.7 -30.4 12.9 -40.1 3.5 -8 -7.8 -5.7 -21.9 5.1 -31.3 6.9 -5.9 11.7 -7.5 22.4 -7.5 5.2 0 8.6 0.9 20.3 5.6 17 6.7 20.2 7.4 31 7.5 13.2 0 18 -1.3 57.5 -15.5 22.2 -8 31 -9.8 46.5 -9.9 12.5 -0.1 13.9 0.1 19 2.5 12.2 5.7 17.1 12.8 17.8 25.4 0.6 11.7 -1.4 17.3 -8.7 24.5 -4.3 4.2 -7 5.9 -11.6 7.4 -7.9 2.5 -15.7 2.9 -23.3 1.1z"/>
  <path d="M359.5 219.8 c-5.1 -1.8 -9.1 -5.5 -19.6 -17.8 -20.4 -24.1 -31 -28.5 -59.4 -24.6 -15.3 2.2 -23.6 4.3 -46 11.8 -9.9 3.3 -20.9 6.7 -24.5 7.5 -20.5 4.3 -36.6 1.7 -41.2 -6.7 -4.2 -8 -0.7 -17.3 10.7 -28.4 11.6 -11.3 22.1 -15.6 40.1 -16.3 17.3 -0.7 24.4 1.2 50.4 13.9 11.3 5.5 23.4 11.1 27 12.5 8.2 3 18.8 3.9 28.4 2.4 11.8 -1.9 18.8 -1.7 23.7 0.8 11.5 5.6 22.5 21.5 23.6 34 0.5 5 0.2 6 -1.8 8.4 -2.8 3.1 -7.1 4.1 -11.4 2.5z"/>
  <path d="M123.2 182.4 c-5 -4.1 -1.6 -13.4 8.6 -23.1 11.2 -10.7 25.8 -16.4 62.2 -24.3 15.2 -3.3 28.5 -7.2 44.6 -12.9 23.5 -8.3 38.9 -10 54.9 -6.2 12.6 3.1 21.5 8.2 30.3 17.5 11.2 11.8 12.2 22.1 2.6 28.4 -5.9 3.9 -11.1 4.6 -21.1 2.7 -11.1 -2.1 -18.8 -5.1 -38.8 -15.1 -22.3 -11.1 -31.2 -13.7 -47.3 -14.1 -11.4 -0.2 -12.9 0 -20.2 2.6 -10.1 3.7 -19.6 9.9 -31.1 20.3 -5.1 4.6 -12 10.7 -15.3 13.6 -11.3 9.9 -24.4 14.6 -29.4 10.6z"/>
  <path d="M177.4 131.3 c-1.2 -0.2 -3 -1.3 -4 -2.4 -1.7 -1.9 -1.7 -2.1 0.2 -4.7 5.9 -8 25.2 -16.1 40.5 -17 8.5 -0.5 8.7 -0.4 10.4 2.1 2.1 3.3 1 5.6 -4.8 9.5 -11.4 7.9 -33.1 14.3 -42.3 12.5z"/>
 </g>
 <g fill="#ffffff">
  <path d="M290.1 366.6 c1 -0.9 8.9 -4.6 8.9 -4.1 0 0.5 -7.5 4.5 -8.6 4.5 -0.4 0 -0.5 -0.2 -0.3 -0.4z"/>
  <path d="M300 361.7 c0 -0.2 1.5 -1.4 3.3 -2.7 2 -1.5 2.7 -1.7 1.8 -0.6 -1.3 1.6 -5.1 4.1 -5.1 3.3z"/>
  <path d="M263.5 360 c0.7 -1.1 6.5 -4.3 6.5 -3.6 0 0.2 -1.6 1.3 -3.6 2.5 -1.9 1.2 -3.2 1.6 -2.9 1.1z"/>
  <path d="M164.3 352.4 l-2.8 -2.5 3.3 2.2 c1.7 1.3 3.2 2.4 3.2 2.6 0 0.8 -1.1 0.1 -3.7 -2.3z"/>
  <path d="M286.5 350 c1.1 -0.5 2.9 -0.8 4 -0.8 1.6 0 1.5 0.2 -0.5 0.8 -3.4 1.1 -6 1.1 -3.5 0z"/>
  <path d="M296.8 348.3 c1.7 -0.2 4.7 -0.2 6.5 0 1.7 0.2 0.3 0.4 -3.3 0.4 -3.6 0 -5 -0.2 -3.2 -0.4z"/>
  <path d="M255.3 344.3 c0.9 -0.2 2.5 -0.2 3.5 0 0.9 0.3 0.1 0.5 -1.8 0.5 -1.9 0 -2.7 -0.2 -1.7 -0.5z"/>
  <path d="M257.8 334.3 c2.3 -0.2 5.9 -0.2 8 0 2 0.2 0.1 0.4 -4.3 0.4 -4.4 0 -6.1 -0.2 -3.7 -0.4z"/>
  <path d="M148.3 329 c0 -2.5 0.2 -3.5 0.4 -2.2 0.2 1.2 0.2 3.2 0 4.5 -0.2 1.2 -0.4 0.2 -0.4 -2.3z"/>
  <path d="M309 325.5 c1.9 -1.9 3.6 -3.5 3.9 -3.5 0.3 0 -1 1.6 -2.9 3.5 -1.9 1.9 -3.6 3.5 -3.9 3.5 -0.3 0 1 -1.6 2.9 -3.5z"/>
  <path d="M293.5 324.8 c1.7 -1.2 5.3 -4.3 8.1 -6.8 4.4 -3.9 4.3 -3.7 -0.7 1.2 -3.2 3.1 -6.9 6.2 -8.1 6.8 -1.5 0.7 -1.3 0.3 0.7 -1.2z"/>
  <path d="M347.2 321.1 c2.6 -2.3 5.9 -5.6 7.3 -7.4 1.3 -1.8 2.5 -2.9 2.5 -2.4 0 1.2 -8.1 9.6 -11.4 11.9 -1.7 1.1 -1 0.2 1.6 -2.1z"/>
  <path d="M321 314.8 c4.1 -4.5 5 -5.3 5 -4.5 0 0.2 -2.1 2.3 -4.7 4.7 l-4.8 4.5 4.5 -4.7z"/>
  <path d="M165.3 314.3 c1.5 -0.2 3.7 -0.2 5 0 1.2 0.2 0 0.4 -2.8 0.4 -2.7 0 -3.8 -0.2 -2.2 -0.4z"/>
  <path d="M134.5 306.1 c-1.1 -0.4 1.8 -0.6 6.5 -0.4 11 0.6 12.5 1.1 3 1.2 -4.1 0 -8.4 -0.4 -9.5 -0.8z"/>
  <path d="M162.3 304.3 c1.5 -0.2 3.7 -0.2 5 0 1.2 0.2 0 0.4 -2.8 0.4 -2.7 0 -3.8 -0.2 -2.2 -0.4z"/>
  <path d="M177.3 303.3 c0.9 -0.2 2.5 -0.2 3.5 0 0.9 0.3 0.1 0.5 -1.8 0.5 -1.9 0 -2.7 -0.2 -1.7 -0.5z"/>
  <path d="M191.3 303.3 c0.9 -0.2 2.5 -0.2 3.5 0 0.9 0.3 0.1 0.5 -1.8 0.5 -1.9 0 -2.7 -0.2 -1.7 -0.5z"/>
  <path d="M168.3 301.5 c-1.8 -0.8 -3.3 -1.6 -3.3 -1.9 0 -0.3 1.5 0.1 3.3 0.8 1.7 0.7 3.9 1.6 4.7 1.9 1.3 0.5 1.3 0.5 0 0.6 -0.8 0 -3 -0.6 -4.7 -1.4z"/>
  <path d="M223.5 298 c1.1 -0.5 2.7 -0.9 3.5 -0.9 0.9 0 0.8 0.4 -0.5 0.9 -1.1 0.5 -2.7 0.9 -3.5 0.9 -0.9 0 -0.8 -0.4 0.5 -0.9z"/>
  <path d="M236.5 294 c1.1 -0.5 2.7 -0.9 3.5 -0.9 0.9 0 0.8 0.4 -0.5 0.9 -1.1 0.5 -2.7 0.9 -3.5 0.9 -0.9 0 -0.8 -0.4 0.5 -0.9z"/>
  <path d="M196.8 290.3 c1.2 -0.2 3 -0.2 4 0 0.9 0.3 -0.1 0.5 -2.3 0.4 -2.2 0 -3 -0.2 -1.7 -0.4z"/>
  <path d="M310.1 287.6 l-2.4 -3.1 2.8 2.7 c1.6 1.5 2.7 2.9 2.4 3.1 -0.2 0.3 -1.5 -1 -2.8 -2.7z"/>
  <path d="M145.4 283.8 l-2.9 -3.3 3.3 2.9 c1.7 1.7 3.2 3.1 3.2 3.3 0 0.8 -0.8 0.1 -3.6 -2.9z"/>
  <path d="M159.9 281.3 l-3.4 -3.8 3.8 3.4 c3.4 3.3 4.2 4.1 3.4 4.1 -0.2 0 -1.9 -1.7 -3.8 -3.7z"/>
  <path d="M286.3 281.3 c2.6 -0.2 6.7 -0.2 9 0 2.3 0.2 0.2 0.3 -4.8 0.3 -4.9 0 -6.8 -0.1 -4.2 -0.3z"/>
  <path d="M107.2 269 c0 -1.9 0.2 -2.7 0.5 -1.7 0.2 0.9 0.2 2.5 0 3.5 -0.3 0.9 -0.5 0.1 -0.5 -1.8z"/>
  <path d="M272.8 260.3 c1.2 -0.2 3 -0.2 4 0 0.9 0.3 -0.1 0.5 -2.3 0.4 -2.2 0 -3 -0.2 -1.7 -0.4z"/>
  <path d="M247.5 254.5 c-2.5 -1.2 -2.6 -1.4 -0.5 -0.9 2.8 0.7 6 2.3 4.5 2.3 -0.5 0 -2.3 -0.6 -4 -1.4z"/>
  <path d="M375.2 251 c0 -1.9 0.2 -2.7 0.5 -1.7 0.2 0.9 0.2 2.5 0 3.5 -0.3 0.9 -0.5 0.1 -0.5 -1.8z"/>
  <path d="M237.8 250.4 c-3.9 -2.1 -3.5 -2.8 0.5 -0.8 3.7 1.9 4.4 2.4 3.1 2.4 -0.5 -0.1 -2.1 -0.8 -3.6 -1.6z"/>
  <path d="M293.3 250.3 c1.5 -0.2 3.7 -0.2 5 0 1.2 0.2 0 0.4 -2.8 0.4 -2.7 0 -3.8 -0.2 -2.2 -0.4z"/>
  <path d="M320 240.5 c1.9 -1.9 3.6 -3.5 3.9 -3.5 0.3 0 -1 1.6 -2.9 3.5 -1.9 1.9 -3.6 3.5 -3.9 3.5 -0.3 0 1 -1.6 2.9 -3.5z"/>
  <path d="M160 238.6 c1.9 -2.1 4.4 -4.2 5.5 -4.8 1.1 -0.6 1.8 -0.9 1.5 -0.6 -0.3 0.2 -2.7 2.4 -5.5 4.8 -4.8 4.2 -4.8 4.2 -1.5 0.6z"/>
  <path d="M106 235.9 c-0.6 -1.1 -1 -2.5 -0.8 -3 0.2 -0.5 0.8 0.4 1.5 2.1 1.3 3.4 0.9 4 -0.7 0.9z"/>
  <path d="M354.3 232.3 c0.9 -0.2 2.5 -0.2 3.5 0 0.9 0.3 0.1 0.5 -1.8 0.5 -1.9 0 -2.7 -0.2 -1.7 -0.5z"/>
  <path d="M157 230.6 c0 -0.3 1.4 -1.2 3 -2.1 1.7 -0.9 3 -1.3 3 -1.1 0 0.3 -1.3 1.2 -3 2.1 -1.6 0.9 -3 1.3 -3 1.1z"/>
  <path d="M183.8 228.3 c1.7 -0.2 4.7 -0.2 6.5 0 1.7 0.2 0.3 0.4 -3.3 0.4 -3.6 0 -5 -0.2 -3.2 -0.4z"/>
  <path d="M237.5 226.1 c-2.2 -1.1 -3.7 -2 -3.4 -2 1 -0.1 7.9 2.9 7.9 3.4 0 0.7 0 0.7 -4.5 -1.4z"/>
  <path d="M105.1 221.9 c-0.1 -0.8 0.6 -2.4 1.5 -3.5 1.5 -1.9 1.5 -1.9 0.6 0.1 -0.5 1.1 -1.2 2.7 -1.5 3.5 -0.5 1.3 -0.6 1.3 -0.6 -0.1z"/>
  <path d="M210.3 218.3 c0.9 -0.2 2.5 -0.2 3.5 0 0.9 0.3 0.1 0.5 -1.8 0.5 -1.9 0 -2.7 -0.2 -1.7 -0.5z"/>
  <path d="M350.7 213.8 c-2.9 -2.9 -3.5 -3.7 -1.3 -1.7 2.3 2 5.2 4.3 6.6 5.3 1.3 0.9 1.9 1.6 1.3 1.6 -0.7 0 -3.6 -2.4 -6.6 -5.2z"/>
  <path d="M197.3 217.3 c2 -0.2 5.4 -0.2 7.5 0 2 0.2 0.3 0.4 -3.8 0.4 -4.1 0 -5.8 -0.2 -3.7 -0.4z"/>
  <path d="M108.8 214.5 c0.6 -1.1 2.5 -3.3 4.4 -5 l3.3 -3 -3.5 4 c-1.9 2.2 -3.9 4.5 -4.4 5 -0.5 0.6 -0.4 0.1 0.2 -1z"/>
  <path d="M183.3 214.3 c2.6 -0.2 6.8 -0.2 9.5 0 2.6 0.2 0.4 0.3 -4.8 0.3 -5.2 0 -7.4 -0.1 -4.7 -0.3z"/>
  <path d="M162.5 209.5 c-2.5 -1.2 -2.6 -1.4 -0.5 -0.9 2.8 0.7 6 2.3 4.5 2.3 -0.5 0 -2.3 -0.6 -4 -1.4z"/>
  <path d="M212.5 210 c1.1 -0.5 2.7 -0.9 3.5 -0.9 0.9 0 0.8 0.4 -0.5 0.9 -1.1 0.5 -2.7 0.9 -3.5 0.9 -0.9 0 -0.8 -0.4 0.5 -0.9z"/>
  <path d="M141.5 202 c-2.7 -0.7 -2.8 -0.8 -0.5 -0.8 1.4 0 3.4 0.3 4.5 0.8 2.5 1.1 0.2 1.1 -4 0z"/>
  <path d="M320.4 197.8 l-2.9 -3.3 3.3 2.9 c3 2.8 3.7 3.6 2.9 3.6 -0.2 0 -1.6 -1.5 -3.3 -3.2z"/>
  <path d="M188.7 198.3 c1.8 -0.2 5 -0.2 7 0 2.1 0.2 0.7 0.4 -3.2 0.4 -3.8 0 -5.5 -0.2 -3.8 -0.4z"/>
  <path d="M201.3 197.3 c0.9 -0.2 2.5 -0.2 3.5 0 0.9 0.3 0.1 0.5 -1.8 0.5 -1.9 0 -2.7 -0.2 -1.7 -0.5z"/>
  <path d="M214.5 195 c1.1 -0.5 2.7 -0.9 3.5 -0.9 0.9 0 0.8 0.4 -0.5 0.9 -1.1 0.5 -2.7 0.9 -3.5 0.9 -0.9 0 -0.8 -0.4 0.5 -0.9z"/>
  <path d="M167.3 183 c0 -2.5 0.2 -3.5 0.4 -2.2 0.2 1.2 0.2 3.2 0 4.5 -0.2 1.2 -0.4 0.2 -0.4 -2.3z"/>
  <path d="M142.4 178.8 c1.1 -0.7 4.4 -3.2 7.5 -5.6 l5.6 -4.3 -4.5 4.1 c-2.5 2.3 -5.8 4.8 -7.5 5.6 -1.7 0.8 -2.2 0.9 -1.1 0.2z"/>
  <path d="M275.3 177.3 c0.9 -0.2 2.5 -0.2 3.5 0 0.9 0.3 0.1 0.5 -1.8 0.5 -1.9 0 -2.7 -0.2 -1.7 -0.5z"/>
  <path d="M169 175.3 c0 -0.6 0.9 -2.1 2.1 -3.4 l2 -2.4 -1.7 3 c-2.4 3.9 -2.4 4 -2.4 2.8z"/>
  <path d="M330.3 173.3 c0.9 -0.2 2.5 -0.2 3.5 0 0.9 0.3 0.1 0.5 -1.8 0.5 -1.9 0 -2.7 -0.2 -1.7 -0.5z"/>
  <path d="M160 164.5 c1.9 -1.9 3.6 -3.5 3.9 -3.5 0.3 0 -1 1.6 -2.9 3.5 -1.9 1.9 -3.6 3.5 -3.9 3.5 -0.3 0 1 -1.6 2.9 -3.5z"/>
  <path d="M279 164.5 c-2.5 -1.3 -4 -2.4 -3.5 -2.4 0.6 0 3 1.1 5.5 2.4 2.5 1.3 4.1 2.4 3.5 2.4 -0.5 0 -3 -1.1 -5.5 -2.4z"/>
  <path d="M312.3 165.3 c0.9 -0.2 2.5 -0.2 3.5 0 0.9 0.3 0.1 0.5 -1.8 0.5 -1.9 0 -2.7 -0.2 -1.7 -0.5z"/>
  <path d="M168 157.7 c0 -0.2 1.5 -1.6 3.3 -3.3 l3.2 -2.9 -2.9 3.3 c-2.8 3 -3.6 3.7 -3.6 2.9z"/>
  <path d="M275.8 154.4 c-3.9 -2.1 -3.5 -2.8 0.5 -0.8 3.7 1.9 4.4 2.4 3.1 2.4 -0.5 -0.1 -2.1 -0.8 -3.6 -1.6z"/>
  <path d="M332.3 150.5 c0 -2.2 0.2 -3 0.4 -1.7 0.2 1.2 0.2 3 0 4 -0.3 0.9 -0.5 -0.1 -0.4 -2.3z"/>
  <path d="M180.8 146.8 c1.1 -1.4 9.2 -6.2 9.2 -5.5 0 0.2 -2.3 1.9 -5.2 3.6 -2.8 1.8 -4.7 2.6 -4 1.9z"/>
  <path d="M212.8 145.3 c1.2 -0.2 3 -0.2 4 0 0.9 0.3 -0.1 0.5 -2.3 0.4 -2.2 0 -3 -0.2 -1.7 -0.4z"/>
  <path d="M229.3 145.3 c0.9 -0.2 2.5 -0.2 3.5 0 0.9 0.3 0.1 0.5 -1.8 0.5 -1.9 0 -2.7 -0.2 -1.7 -0.5z"/>
  <path d="M164.5 142 c1.1 -0.5 2.7 -0.9 3.5 -0.9 0.9 0 0.8 0.4 -0.5 0.9 -1.1 0.5 -2.7 0.9 -3.5 0.9 -0.9 0 -0.8 -0.4 0.5 -0.9z"/>
  <path d="M180 138 c1.4 -0.4 3.4 -0.8 4.5 -0.8 1.6 0 1.5 0.2 -0.5 0.8 -1.4 0.4 -3.4 0.8 -4.5 0.8 -1.6 0 -1.5 -0.2 0.5 -0.8z"/>
  <path d="M238.5 138 c-1.3 -0.5 -1.4 -0.9 -0.5 -0.9 0.8 0 2.4 0.4 3.5 0.9 1.3 0.5 1.4 0.9 0.5 0.9 -0.8 0 -2.4 -0.4 -3.5 -0.9z"/>
  <path d="M321.5 131.8 l-6 -6.3 6.3 6 c3.4 3.3 6.2 6.1 6.2 6.2 0 0.8 -1 -0.1 -6.5 -5.9z"/>
  <path d="M213.8 134.3 c2.3 -0.2 6.1 -0.2 8.5 0 2.3 0.2 0.4 0.4 -4.3 0.4 -4.7 0 -6.6 -0.2 -4.2 -0.4z"/>
  <path d="M173 124.7 c0 -0.2 1.5 -1.6 3.3 -3.3 l3.2 -2.9 -2.9 3.3 c-2.8 3 -3.6 3.7 -3.6 2.9z"/>
  <path d="M308 122 c-1.9 -1.1 -3.1 -1.9 -2.7 -2 1.1 0 6.7 2.9 6.7 3.5 0 0.7 -0.1 0.7 -4 -1.5z"/>
  <path d="M300 118.4 c-3.3 -1.3 -3.3 -1.4 -0.5 -0.8 1.7 0.3 3.4 1 4 1.5 1.1 1.1 0.8 1.1 -3.5 -0.7z"/>
  <path d="M250.5 118 c1.1 -0.5 2.7 -0.9 3.5 -0.9 0.9 0 0.8 0.4 -0.5 0.9 -1.1 0.5 -2.7 0.9 -3.5 0.9 -0.9 0 -0.8 -0.4 0.5 -0.9z"/>
  <path d="M271.8 114.3 c2.8 -0.2 7.6 -0.2 10.5 0 2.8 0.2 0.5 0.3 -5.3 0.3 -5.8 0 -8.1 -0.1 -5.2 -0.3z"/>
 </g>
<g opacity="0.5" transform="rotate(-45, 240.0, 240.0)">
  <text x="50%" y="50%" font-size="20" text-anchor="middle" fill="lightgray" dominant-baseline="middle">
    generated by vectorizer.io
  </text>
</g>
</svg>